<svg xmlns="http://www.w3.org/2000/svg" width="200" height="60" viewBox="0 0 200 60">
  <path fill="#FF9900" d="M35.6 26.6c-3.4 2.5-8.3 3.8-12.5 3.8-5.9 0-11.2-2.2-15.2-5.8-.3-.3 0-.7.4-.5 4.8 2.8 10.7 4.5 16.8 4.5 4.1 0 8.6-.9 12.8-2.7.6-.3 1.1.4.5.7"/>
  <path fill="#FF9900" d="M37.2 24.8c-.4-.6-2.9-.3-4-.1-.3 0-.4-.3-.1-.5 2-1.4 5.2-1 5.6-.5.4.5-.1 3.7-2 5.3-.3.2-.6.1-.4-.2.4-1 1.3-3.2.9-4"/>
  <path fill="#000000" d="M33.7 15.4v-2.1c0-.3.2-.5.5-.5h9.2c.3 0 .5.2.5.5v1.8c0 .3-.3.7-.7 1.3l-4.8 6.8c1.8-.1 3.6.2 5.2 1.1.4.2.5.5.5.8v2.2c0 .3-.3.7-.7.5-2.9-1.5-6.7-1.7-9.9 0-.3.2-.7-.2-.7-.5v-2.1c0-.3 0-.9.3-1.3l5.5-7.9h-4.8c-.3 0-.5-.2-.5-.5M12.3 28.1h-2.8c-.3 0-.5-.2-.5-.5V13.3c0-.3.2-.5.5-.5h2.6c.3 0 .5.2.5.5v1.9h.1c.7-1.8 2-2.7 3.7-2.7 1.8 0 2.9.8 3.7 2.7.7-1.8 2.2-2.7 3.9-2.7 1.2 0 2.5.5 3.2 1.6.9 1.2.7 3 .7 4.6v9.2c0 .3-.2.5-.5.5h-2.8c-.3 0-.5-.2-.5-.5v-7.7c0-.6.1-2.1-.1-2.7-.3-1-.9-1.2-1.8-1.2-.7 0-1.5.5-1.8 1.3s-.2 2.1-.2 2.6v7.7c0 .3-.2.5-.5.5h-2.8c-.3 0-.5-.2-.5-.5v-7.7c0-1.6.3-4-1.8-4-2.1 0-2 2.3-2 4v7.7c0 .3-.2.5-.5.5M71.6 13c4.1 0 6.4 3.6 6.4 8.1 0 4.4-2.5 7.8-6.4 7.8-4.1 0-6.3-3.6-6.3-8 0-4.5 2.3-7.9 6.3-7.9m0 2.9c-2.1 0-2.2 2.9-2.2 4.6 0 1.8 0 5.5 2.2 5.5s2.3-3.1 2.3-4.9c0-1.2-.1-2.7-.4-3.8-.3-1-.9-1.4-1.9-1.4M82.9 28.1h-2.8c-.3 0-.5-.2-.5-.5V13.3c0-.3.2-.5.5-.5h2.6c.2 0 .4.2.5.4v2h.1c.8-1.9 1.9-2.8 3.8-2.8 1.2 0 2.5.4 3.2 1.7.7 1.2.7 3.1.7 4.5v9.2c0 .3-.2.5-.5.5h-2.8c-.3 0-.5-.2-.5-.5v-7.9c0-1.6.2-3.9-1.8-3.9-.7 0-1.3.5-1.6 1.2-.4.9-.4 1.9-.4 2.7v7.9c0 .3-.2.5-.5.5M98.9 23.1c0 1.1 0 2-.5 2.9-.4.8-1 1.3-1.7 1.3-1 0-1.5-.7-1.5-1.8 0-2.1 1.9-2.5 3.7-2.5v.1m2.8 6.7c-.2.2-.4.2-.6.1-1-.8-1.1-1.1-1.6-1.9-1.6 1.6-2.7 2.1-4.7 2.1-2.4 0-4.3-1.5-4.3-4.4 0-2.3 1.2-3.9 3-4.6 1.5-.7 3.7-.8 5.3-1v-.4c0-.7.1-1.5-.3-2.1-.4-.5-1.1-.7-1.7-.7-1.2 0-2.2.6-2.5 1.8-.1.2-.2.5-.5.5l-2.7-.3c-.2 0-.5-.2-.4-.6.6-3.3 3.6-4.3 6.2-4.3 1.4 0 3.1.4 4.2 1.4 1.3 1.3 1.2 3 1.2 4.8v4.4c0 1.3.5 1.9 1 2.6.2.3.2.6 0 .8-.5.4-1.5 1.2-2 1.7l-.2-.1M107.7 28.1h-2.8c-.3 0-.5-.2-.5-.5V8.9c0-.3.2-.5.5-.5h2.6c.2 0 .4.2.5.4v2.8h.1c.8-2 1.9-2.9 3.8-2.9 1.3 0 2.5.5 3.3 1.7.7 1.2.7 3.1.7 4.5v9c0 .3-.2.5-.5.5h-2.8c-.3 0-.5-.2-.5-.5v-7.7c0-1.6.2-3.9-1.8-3.9-.7 0-1.3.5-1.6 1.2-.4.9-.4 1.9-.4 2.7v7.7c0 .3-.2.5-.5.5M59.7 28.1c-.2.2-.4.2-.6.1-1-.8-1.1-1.1-1.6-1.9-1.6 1.6-2.7 2.1-4.7 2.1-2.4 0-4.3-1.5-4.3-4.4 0-2.3 1.2-3.9 3-4.6 1.5-.7 3.7-.8 5.3-1v-.4c0-.7.1-1.5-.3-2.1-.4-.5-1.1-.7-1.7-.7-1.2 0-2.2.6-2.5 1.8-.1.2-.2.5-.5.5l-2.7-.3c-.2 0-.5-.2-.4-.6.6-3.3 3.6-4.3 6.2-4.3 1.4 0 3.1.4 4.2 1.4 1.3 1.3 1.2 3 1.2 4.8v4.4c0 1.3.5 1.9 1 2.6.2.3.2.6 0 .8-.5.4-1.5 1.2-2 1.7l-.2-.1m-2.8-5c0 1.1 0 2-.5 2.9-.4.8-1 1.3-1.7 1.3-1 0-1.5-.7-1.5-1.8 0-2.1 1.9-2.5 3.7-2.5v.1"/>
</svg> 