<svg xmlns="http://www.w3.org/2000/svg" width="200" height="200" viewBox="0 0 200 200">
  <path fill="#000000" d="M155.8 130.5c-2.7 6.1-5.9 11.7-9.6 16.9-5 7.1-9.1 12-12.3 14.7-4.9 4.5-10.2 6.8-15.8 6.9-4 0-8.9-1.1-14.6-3.5-5.7-2.3-10.9-3.5-15.7-3.5-5 0-10.4 1.2-16.1 3.5-5.7 2.4-10.3 3.6-13.8 3.7-5.3.2-10.7-2.1-16-7.1-3.4-2.9-7.7-7.9-12.8-15.1-5.5-7.7-10-16.7-13.5-26.9-3.8-11-5.7-21.7-5.7-32 0-11.8 2.6-22 7.7-30.5 4-6.9 9.4-12.3 16.1-16.3 6.7-4 13.9-6 21.7-6.1 4.3 0 9.8 1.3 16.7 3.9 6.9 2.6 11.3 3.9 13.2 3.9 1.4 0 6.4-1.5 14.8-4.6 7.9-2.8 14.6-4 20.1-3.5 14.8 1.2 26 7 33.3 17.4-13.3 8-19.8 19.3-19.7 33.7.1 11.2 4.2 20.6 12.2 28 3.6 3.4 7.7 6.1 12.2 8-1 2.8-2 5.5-3.1 8.1zM119.5 7.4c0 8.8-3.2 17-9.6 24.5-7.7 9-17.1 14.2-27.2 13.4-.1-.9-.2-1.9-.2-2.9 0-7.4 3.2-15.3 8.9-21.8 2.9-3.3 6.5-6.1 10.9-8.3 4.3-2.2 8.4-3.4 12.3-3.6.1 1 .2 1.8.2 2.7z"/>
</svg> 