<?xml version="1.0" encoding="UTF-8"?>
<svg width="64" height="64" viewBox="0 0 64 64" fill="none" xmlns="http://www.w3.org/2000/svg">
  <!-- Rocket body -->
  <path d="M32 0C43.05 0 52 8.95 52 20C52 31.05 43.05 40 32 40C20.95 40 12 31.05 12 20C12 8.95 20.95 0 32 0Z" fill="url(#paint0_linear)"/>
  
  <!-- Rocket window -->
  <path d="M32 8C38.85 8 44 13.15 44 20C44 26.85 38.85 32 32 32C25.15 32 20 26.85 20 20C20 13.15 25.15 8 32 8Z" fill="url(#paint1_linear)"/>
  
  <!-- Rocket flames -->
  <path d="M16 48L24 40L32 48L40 40L48 48L32 64L16 48Z" fill="url(#paint2_linear)"/>
  
  <!-- Rocket engine -->
  <path d="M24 40L32 32L40 40L32 48L24 40Z" fill="url(#paint3_linear)"/>

  <defs>
    <linearGradient id="paint0_linear" x1="32" y1="0" x2="32" y2="40" gradientUnits="userSpaceOnUse">
      <stop stop-color="#B794F6"/>
      <stop offset="1" stop-color="#9F7AEA"/>
    </linearGradient>
    <linearGradient id="paint1_linear" x1="32" y1="8" x2="32" y2="32" gradientUnits="userSpaceOnUse">
      <stop stop-color="#E2E8F0"/>
      <stop offset="1" stop-color="#CBD5E0"/>
    </linearGradient>
    <linearGradient id="paint2_linear" x1="32" y1="40" x2="32" y2="64" gradientUnits="userSpaceOnUse">
      <stop stop-color="#FBD38D"/>
      <stop offset="1" stop-color="#F6AD55"/>
    </linearGradient>
    <linearGradient id="paint3_linear" x1="32" y1="32" x2="32" y2="48" gradientUnits="userSpaceOnUse">
      <stop stop-color="#FC8181"/>
      <stop offset="1" stop-color="#F56565"/>
    </linearGradient>
  </defs>
</svg> 