<?xml version="1.0" encoding="UTF-8"?>
<svg width="64" height="64" viewBox="0 0 64 64" fill="none" xmlns="http://www.w3.org/2000/svg">
  <!-- Simplified hand for favicon -->
  <path d="M20 52C20 52 22 46 26 44C30 42 32 38 34 35C36 32 36 28 36 26C36 22 34 18 32 16C30 14 26 12 24 10" stroke="url(#paint0_linear)" stroke-width="3" stroke-linecap="round" fill="none"/>
  
  <!-- Palm -->
  <ellipse cx="30" cy="40" rx="6" ry="9" fill="url(#paint1_linear)" transform="rotate(-15 30 40)"/>
  
  <!-- Fingers -->
  <ellipse cx="26" cy="32" rx="2" ry="6" fill="url(#paint2_linear)" transform="rotate(-25 26 32)"/>
  <ellipse cx="28" cy="30" rx="2" ry="7" fill="url(#paint3_linear)" transform="rotate(-15 28 30)"/>
  <ellipse cx="30" cy="30" rx="2" ry="7" fill="url(#paint4_linear)" transform="rotate(-5 30 30)"/>
  <ellipse cx="32" cy="31" rx="2" ry="6" fill="url(#paint5_linear)" transform="rotate(5 32 31)"/>
  
  <!-- Lightbulb -->
  <g transform="translate(30, 16)">
    <!-- Bulb main -->
    <ellipse cx="0" cy="2" rx="4" ry="5" fill="url(#paint6_linear)"/>
    
    <!-- Bulb top -->
    <path d="M-3 -1C-3 -3 -2 -4 0 -4C2 -4 3 -3 3 -1" fill="url(#paint7_linear)"/>
    
    <!-- Screw threads -->
    <rect x="-3" y="6" width="6" height="1" rx="0.5" fill="url(#paint8_linear)"/>
    <rect x="-3" y="7.5" width="6" height="1" rx="0.5" fill="url(#paint9_linear)"/>
  </g>
  
  <!-- AI Particles -->
  <circle cx="24" cy="12" r="1" fill="url(#paint10_linear)">
    <animate attributeName="opacity" values="0.3;1;0.3" dur="2s" repeatCount="indefinite"/>
  </circle>
  <circle cx="36" cy="11" r="1.5" fill="url(#paint11_linear)">
    <animate attributeName="opacity" values="0.4;1;0.4" dur="3s" repeatCount="indefinite"/>
  </circle>
  <circle cx="40" cy="13" r="1" fill="url(#paint12_linear)">
    <animate attributeName="opacity" values="0.6;1;0.6" dur="2.2s" repeatCount="indefinite"/>
  </circle>

  <defs>
    <!-- Hand gradients -->
    <linearGradient id="paint0_linear" x1="20" y1="10" x2="36" y2="52" gradientUnits="userSpaceOnUse">
      <stop offset="0" stop-color="#9C71BA"/>
      <stop offset="1" stop-color="#71ADBA"/>
    </linearGradient>
    <linearGradient id="paint1_linear" x1="24" y1="31" x2="36" y2="49" gradientUnits="userSpaceOnUse">
      <stop offset="0" stop-color="#9C71BA"/>
      <stop offset="1" stop-color="#71ADBA"/>
    </linearGradient>
    <linearGradient id="paint2_linear" x1="24" y1="26" x2="28" y2="38" gradientUnits="userSpaceOnUse">
      <stop offset="0" stop-color="#9C71BA"/>
      <stop offset="1" stop-color="#71ADBA"/>
    </linearGradient>
    <linearGradient id="paint3_linear" x1="26" y1="23" x2="30" y2="37" gradientUnits="userSpaceOnUse">
      <stop offset="0" stop-color="#9C71BA"/>
      <stop offset="1" stop-color="#71ADBA"/>
    </linearGradient>
    <linearGradient id="paint4_linear" x1="28" y1="23" x2="32" y2="37" gradientUnits="userSpaceOnUse">
      <stop offset="0" stop-color="#9C71BA"/>
      <stop offset="1" stop-color="#71ADBA"/>
    </linearGradient>
    <linearGradient id="paint5_linear" x1="30" y1="25" x2="34" y2="37" gradientUnits="userSpaceOnUse">
      <stop offset="0" stop-color="#9C71BA"/>
      <stop offset="1" stop-color="#71ADBA"/>
    </linearGradient>
    
    <!-- Lightbulb gradients -->
    <linearGradient id="paint6_linear" x1="-4" y1="-3" x2="4" y2="7" gradientUnits="userSpaceOnUse">
      <stop offset="0" stop-color="#EDEAB1"/>
      <stop offset="1" stop-color="#71ADBA"/>
    </linearGradient>
    <linearGradient id="paint7_linear" x1="-3" y1="-4" x2="3" y2="-1" gradientUnits="userSpaceOnUse">
      <stop offset="0" stop-color="#EDEAB1"/>
      <stop offset="1" stop-color="#F5F3C4"/>
    </linearGradient>
    <linearGradient id="paint8_linear" x1="-3" y1="6.5" x2="3" y2="6.5" gradientUnits="userSpaceOnUse">
      <stop offset="0" stop-color="#71ADBA"/>
      <stop offset="1" stop-color="#9C71BA"/>
    </linearGradient>
    <linearGradient id="paint9_linear" x1="-3" y1="8" x2="3" y2="8" gradientUnits="userSpaceOnUse">
      <stop offset="0" stop-color="#71ADBA"/>
      <stop offset="1" stop-color="#9C71BA"/>
    </linearGradient>
    
    <!-- AI particle gradients -->
    <linearGradient id="paint10_linear" x1="23" y1="11" x2="25" y2="13" gradientUnits="userSpaceOnUse">
      <stop offset="0" stop-color="#EDEAB1"/>
      <stop offset="1" stop-color="#9C71BA"/>
    </linearGradient>
    <linearGradient id="paint11_linear" x1="34.5" y1="9.5" x2="37.5" y2="12.5" gradientUnits="userSpaceOnUse">
      <stop offset="0" stop-color="#9C71BA"/>
      <stop offset="1" stop-color="#EDEAB1"/>
    </linearGradient>
    <linearGradient id="paint12_linear" x1="39" y1="12" x2="41" y2="14" gradientUnits="userSpaceOnUse">
      <stop offset="0" stop-color="#EDEAB1"/>
      <stop offset="1" stop-color="#71ADBA"/>
    </linearGradient>
  </defs>
</svg> 